{"accessors":[{"bufferView":2,"componentType":5126,"count":12123,"max":[26.20965576171875,27.529531478881836,0.10816669464111328],"min":[-26.20965576171875,-26.640974044799805,-17.77092933654785],"type":"VEC3"},{"bufferView":2,"byteOffset":145476,"componentType":5126,"count":12123,"max":[1,1,1],"min":[-1,-1,-1],"type":"VEC3"},{"bufferView":3,"componentType":5126,"count":12123,"max":[1,1,1,1],"min":[-1,-1,-1,-1],"type":"VEC4"},{"bufferView":1,"componentType":5126,"count":12123,"max":[0.9971275329589844,0.9970199465751648],"min":[0.0007405758369714022,0.00109096709638834],"type":"VEC2"},{"bufferView":1,"byteOffset":96984,"componentType":5126,"count":12123,"max":[0.9971275329589844,0.9970199465751648],"min":[0.0007405758369714022,0.00109096709638834],"type":"VEC2"},{"bufferView":0,"componentType":5125,"count":40341,"max":[12122],"min":[0],"type":"SCALAR"},{"bufferView":2,"byteOffset":290952,"componentType":5126,"count":40,"max":[2.166334390640259,26.18186378479004,-5.325428485870361],"min":[-2.166334390640259,23.88991928100586,-6.5171613693237305],"type":"VEC3"},{"bufferView":2,"byteOffset":291432,"componentType":5126,"count":40,"max":[0.8528863787651062,0.6810102462768555,-0.37089842557907104],"min":[-0.8528863787651062,0.3674497604370117,-0.7506417632102966],"type":"VEC3"},{"bufferView":3,"byteOffset":193968,"componentType":5126,"count":40,"max":[0.9962736964225769,0.9190227389335632,0.052294787019491196,1],"min":[0.39418384432792664,-0.9190227389335632,-0.05229479447007179,1],"type":"VEC4"},{"bufferView":1,"byteOffset":193968,"componentType":5126,"count":40,"max":[0.3412865698337555,0.9923498034477234],"min":[0.2469775527715683,0.9391911029815674],"type":"VEC2"},{"bufferView":1,"byteOffset":194288,"componentType":5126,"count":40,"max":[0.3412865698337555,0.9923498034477234],"min":[0.2469775527715683,0.9391911029815674],"type":"VEC2"},{"bufferView":0,"byteOffset":161364,"componentType":5125,"count":72,"max":[39],"min":[0],"type":"SCALAR"}],"asset":{"extras":{"author":"Yi Tsung Lee (https://sketchfab.com/WTigerTw)","license":"CC-BY-4.0 (http://creativecommons.org/licenses/by/4.0/)","source":"https://sketchfab.com/3d-models/lowpoly-11-c17a-global-master-iii-5a8a1a57e54c495e8966087d0197f8e5","title":"Lowpoly 1:1 C17A Global Master III"},"generator":"Sketchfab-10.33.2","version":"2.0"},"bufferViews":[{"buffer":0,"byteLength":161652,"byteOffset":0,"name":"floatBufferViews","target":34963},{"buffer":0,"byteLength":194608,"byteOffset":161652,"byteStride":8,"name":"floatBufferViews","target":34962},{"buffer":0,"byteLength":291912,"byteOffset":356260,"byteStride":12,"name":"floatBufferViews","target":34962},{"buffer":0,"byteLength":194608,"byteOffset":648172,"byteStride":16,"name":"floatBufferViews","target":34962}],"buffers":[{"byteLength":842780,"uri":"data:application/octet-stream;base64,"}],"images":[{"uri":"data:application/octet-stream;base64,"},{"uri":"data:application/octet-stream;base64,"}],"materials":[{"doubleSided":true,"emissiveFactor":[0,0,0],"name":"Material.001","normalTexture":{"index":1,"scale":1,"texCoord":1},"pbrMetallicRoughness":{"baseColorFactor":[1,1,1,1],"baseColorTexture":{"index":0,"texCoord":0},"metallicFactor":0.5063644212587175,"roughnessFactor":0.6279678845253513}}],"meshes":[{"primitives":[{"attributes":{"NORMAL":1,"POSITION":0,"TANGENT":2,"TEXCOORD_0":3,"TEXCOORD_1":4},"indices":5,"material":0,"mode":4}]},{"primitives":[{"attributes":{"NORMAL":7,"POSITION":6,"TANGENT":8,"TEXCOORD_0":9,"TEXCOORD_1":10},"indices":11,"material":0,"mode":4}]}],"nodes":[{"children":[1],"name":"RootNode (gltf orientation matrix)","rotation":[-0.7071067811865475,0,0,0.7071067811865476]},{"children":[2],"name":"RootNode (model correction matrix)"},{"children":[3],"name":"root"},{"children":[4,6],"matrix":[1,0,0,0,0,2.220446049250313e-16,1,0,0,-1,2.220446049250313e-16,0,0,0,0,1],"name":"GLTF_SceneRootNode"},{"children":[5],"matrix":[1,0,0,0,0,0,1,0,0,-1,0,0,0,0,0,1],"name":"object_0"},{"mesh":0,"name":""},{"children":[7],"matrix":[1,0,0,0,0,0,1,0,0,-1,0,0,0,0,0,1],"name":"object.002_1"},{"mesh":1,"name":""}],"samplers":[{"magFilter":9729,"minFilter":9987,"wrapS":10497,"wrapT":10497},{"magFilter":9728,"minFilter":9728,"wrapS":10497,"wrapT":10497}],"scene":0,"scenes":[{"name":"OSG_Scene","nodes":[0]}],"textures":[{"sampler":0,"source":0},{"sampler":1,"source":1}]}